<?xml version="1.0" encoding="utf-8"?>
<svg version="1.1" xmlns="http://www.w3.org/2000/svg">
	<symbol id="logo" viewBox="0 0 411 144" preserveAspectRatio="xMidYMax meet">
		<title>logo</title>
		<path fill="transparent" d="M148.7,108.8c3.2-1,6.5-0.4,9.6,0.5c-1.5,1.4-3,3.1-5.3,2.8C151,112.1,150,110,148.7,108.8z"/>
		<path fill="var(--color-white)" d="M66.7,17.7C74.6,11.2,84.6,6.4,95,7.4c5.9,0.1,12,4.3,12.2,10.6c0.5,10.4-6.1,19.2-12.2,27
			c3.8,8.6,7.2,18.6,4,27.9c-0.7-0.1-2.1-0.4-2.8-0.5c2.8-8.4,1.7-17.7-2.5-25.5c-3.9,3.1-7.1,6.8-10.8,10
			C70.1,67.6,55.2,76.1,38.8,79.8c-1.6,8.3-2.1,16.7-2.4,25.1c4.3-6.4,10.1-11.9,17-15.5c2.4-1.3,5.3-1.6,7.9-0.8
			c3,2.1,3.3,6.9,0.6,9.3c-3.2,3.2-7.4,5.2-11,8.1c3.6,4.6,10,4.5,15.1,3c6.7-2.7,12.3-7.5,16.9-13c-0.5-2.8-2.9-6-0.7-8.7
			c2.1-3.6,6.4-4.4,10.2-3.6c1,4.3-1.9,7.7-3.8,11.2c2,1.6,4.2,2.9,5.9,4.8c0.9,3.9-2.7,7.4-2,11.3c1.2,1.1,2.8,1.8,4.4,1.3
			c6.9-1.4,12.6-5.9,17.8-10.5c4.8-4.2,6.6-10.6,8.9-16.2c2.8-0.4,7.5-0.6,7.2,3.5c-1,5.4-5.9,9.1-7.2,14.5c-0.6,2.4-1.1,6.1,1.7,7.4
			c4.2,1.7,8.7-0.1,12.4-2.1c7.8-4.2,14.2-10.4,20-17c2.8-3.1,4.7-7,8.3-9.3c2.7-0.6,4.6,2,4.4,4.4c-1.7,2-4.1,3.2-6.2,4.6
			c0,5.4,3.1,10.1,3.6,15.5c4.1-0.4,8.1-1.5,11.6-3.6c2.5-1.5,5.7-3,5.9-6.3c2-10.3,6-20,10.4-29.4c-8.2-4.2-16.5-7.9-24.8-11.8
			c-10.3-4.8-22-6.9-33.3-5.2c-4.6,0.9-8.3,3.8-11.8,6.8c-1-0.9-1.9-1.8-2.9-2.7c1.1-2.9,3.7-4.7,6.6-5.3c13-3.3,26.8-1.8,39.4,2.4
			c9.7,3.6,19.3,7.5,29.1,10.8c2.9-4.9,5.5-10.1,9.4-14.3c1.3-1.1,3.4-2.7,5-1.2c2.2,1,2.3,4.2,0.7,5.8c-3.2,3.6-7,7-8.5,11.8
			c4.6,0.7,9.3,1.1,13.8,0.4c3.5-0.9,6.4-3.1,9.6-4.4c-1.1,5.3-6.1,8.5-10.7,10.6c-5.2,2.4-10.9,0.1-16-1.3c-4.4,10.5-8,21.5-8.9,32.8
			c-0.4,3.6,1.2,8.5,5.4,8.7c7,0.2,12.6-4.9,17.8-8.9c5.8-4.2,7.6-11.4,10.5-17.6c2.1,0.3,4.9-0.8,6.3,1.3c1.8,1.9,0.3,4.5-0.8,6.3
			c-2.9,4.8-7.2,9.8-6,15.9c1.4,3,5.3,3.1,8.1,2.4c6.3-1.7,11.7-5.6,16.6-9.7c4.2-3.4,6.5-8.4,8.6-13.3c0.7-1.4,1.2-3.3,3-3.6
			c2.6,0.3,4.2,2.4,5.6,4.3c-1.8,5.5-5.4,10.2-8.1,15.3c6.9-4.8,12.8-11.6,20.9-14.5c2.6-0.9,6.6-0.8,7.5,2.5
			c0.7,4.2-1.7,8.2-2.6,12.2c-2.1,7.5-1.3,16.8,5.2,22c7.7,6.1,18,6.8,27.4,7.2c16.1,0.7,30.4-8,45.5-12.1c11.1-3.1,23.7-1,32.6,6.4
			c1.8,1.4,3.2,3.2,4.2,5.3c-3.5-1.6-6.5-4.1-10.2-5.3c-8.7-3-18.1-2.7-27-0.6c-16.9,3.7-33.6,9.5-51.1,8.8
			c-9.3-0.5-19.2-1.5-27.1-6.9c-5.3-3.5-8.5-9.7-8.3-16.1c-0.2-6.6,2.8-12.6,3.4-19.1c-5.2,0.2-9.1,3.9-13,6.9
			c-4.5,3.6-8.2,8-11.9,12.3c-1.9,2.7-6,0.4-6.5-2.3c0-2.1,0.6-4.2,1-6.2c-6,4.2-12.2,8.8-19.7,9.9c-3.8,0.4-8.2,0.5-11.2-2.3
			c-2.1-2.1-1.5-5.3-2-7.9c-6.3,4.9-13.3,10.6-21.7,10.4c-3.6,0.2-7.2-1.6-8.9-4.8c-1.1-2.4-1.3-5-1.8-7.6c-4.4,3.1-9.3,5.2-14.6,6.3
			c-3.4,0.5-4.2,4.5-7,6c-4.2,2.4-10,2.6-14.1-0.3c-2.5-1.8-3.3-6.5-0.2-8.1c3.5-0.6,7,0.5,10.4,0.7c0.5-4.3,1.1-8.9-0.2-13.1
			c-8,7.3-15.7,15.8-26.2,19.5c-4.9,1.6-10.8,2.4-15.4-0.4c-2.8-1.9-2.4-5.6-2.7-8.5c-6.1,4.8-12.4,10.2-20.3,11.6
			c-3.4,0.7-7.9-0.1-9.4-3.6c-1-4.6,2.6-8.5,4.1-12.6c-1.1-1.1-2.3-2.2-3.4-3.3c-6.5,6.1-12.9,13-21.5,16.2
			c-5.6,1.9-12.6,1.9-17.1-2.4c-1.6-1.4-3.3-3.6-2.1-5.8c3.7-4.6,10-6.4,12.6-11.9C55.4,92.4,53.5,92,52,93c-5.7,3-10.5,7.8-13.4,13.6
			c-1.5,2.8-1.1,6.2-2.8,8.8c-2.4,0.3-5-0.9-6.2-3.1c-1.4-2.6-1-5.6-1-8.4c0.3-7.8,0.8-15.6,2-23.4C24.5,79.5,17.4,79,13,74
			c-5.3-5.7-4.2-14.6-1.1-21.1c5.9-12,18-19.7,30.5-23.7c4.8-1.7,10-1.9,15-2.9C60.7,23.7,63.3,20.3,66.7,17.7 M66.8,27.1
			c5.4,1.2,10.8,2.6,15.5,5.5c4.6,2.6,8,6.8,11.6,10.5c4.9-6.3,10.5-13.5,9.8-22c0-4-3.9-7.1-7.8-6.9C84.8,13.3,74.5,19.5,66.8,27.1
			 M33.7,35.6c-7.2,4.2-14,9.8-17.8,17.3c-3,5.7-3.1,13.2,0.8,18.5c3.5,4.4,9.2,6.5,14.7,6.4C35.6,60,44.1,43.5,55.1,29
			C47.6,29.5,40.2,31.9,33.7,35.6 M64.5,29.2C52.4,42.8,43.9,59.4,39.7,77c6.9-0.9,13.3-3.7,19.4-6.7c12.5-6.4,23.9-15,33.2-25.4
			C86.3,35.4,75.4,30.1,64.5,29.2 M148.7,108.8c1.3,1.3,2.3,3.3,4.4,3.2c2.2,0.3,3.8-1.4,5.3-2.8C155.2,108.3,151.9,107.8,148.7,108.8
			z"/>
		<path fill="var(--color-white)" d="M341.6,55.8c2.3-2.3,6-1.2,8.9-1.3c4.3,0.7,8.6-0.7,12.9-0.1c2.3,1.9,2.8,5,3.2,7.8c3.9,1.3,7.1,3.9,10.5,5.9
			c5.5,1.6,11.9-1.3,17.2,1.6c2,0.8,2.1,3,2.7,4.8c0.4,4,5.7,5,6.2,9c2.2,10.8,0,21.7,0.1,32.6c-0.8-2.3-1.8-4.6-1.8-7.1
			c0-7,0.2-14-0.3-21c-0.4-3.7-2.7-6.7-5-9.5c-4.1-0.1-8.2-0.1-12.3-0.5c4.3-0.6,8.7-1,13-1.4c-0.8-2.2-0.8-5.2-3.3-6.4
			c-6.5-2.5-13.7,2.3-20-0.9c-4.2-1.6-7.9-5-12.6-4.7c-5.7,0.1-11.4,0.2-17.1,0c-6-0.6-9.2,6.2-14.9,6.8c-5,0.3-10.1-0.1-15.1,0.1
			c-0.5,2.1-1.1,4.1-1.7,6.2c3.1,0,6.2,0.1,9.3-0.1c0,0.2,0,0.7,0.1,1c-4.8-0.3-10,0.2-13.9,3.2c-3.4,5.1-2.1,11.6-2.5,17.3
			c-0.5,6-0.5,12-0.8,18.1c-2.9-6.3-1.6-13.3-1.9-20.1c0.1-5.2-0.6-10.5,1.1-15.5c1.5-3.2,5.7-3,8.6-4.2c0.2-1.9,0.1-3.9,0.5-5.8
			c0.8-1.1,1.8-2.1,2.7-3.2c0.9-1.8,0.7-4.3,2.4-5.5c3.4-0.9,7-0.3,10.5-0.2c1,2,1.8,3.9,2.6,6c2.8-2.3,5.7-4.6,8.6-6.8
			C340.1,59.8,339.9,57.3,341.6,55.8 M342.3,56.2c-0.5,1.7-1,3.4-1.4,5.1c8,2.4,16.2,0,24.3,0.1c-1-1.8-2-3.5-3-5.2
			c-3.1,0.6-6.1,1.5-9.2,1.4C349.4,57.5,345.9,56.5,342.3,56.2 M317.4,65.7c-1.1,0.9-1.1,1.8,0,2.7c3.9,0.8,7.8,1.1,11.7,1.1
			c-0.5-1.4-1-2.8-1.5-4.2C324.2,65.4,320.8,65.2,317.4,65.7z"/>
		<path fill="var(--color-white)" d="M133.8,65.8c1.7-2.1,4.4-1.7,6.7-1.3c1.2,4.2-2,9-6.4,8.9C130.4,72.4,131.3,67.6,133.8,65.8z"/>
		<path fill="var(--color-white)" d="M236,66c1.5-2.2,4.3-1.7,6.6-1.7c2.8,4.8-3.4,11.1-8.3,8.3C234.3,70.3,234,67.6,236,66z"/>
		<path fill="var(--color-white)" d="M337.3,75.3c5.4-3.9,12.2-5.6,18.8-5.1c10.5-0.4,20,7.1,24.3,16.4c3.4,6.3,2.5,13.7,1.5,20.4
			c0.2-10.2-2-21.8-10.4-28.6c-10-8.6-27.1-8.2-35.6,2.3c-2.8,3.6-6.2,6.9-7.8,11.3c-1.3,5.9-1,12.4,1.7,17.9c1.5,3.2,3.9,5.9,5.8,8.8
			c-7.3-5.5-10.1-15.1-9.8-23.9C327,87.3,330.8,79.8,337.3,75.3z"/>
		<path fill="var(--color-white)" d="M345,79c4.5-2.2,9.7-1.9,14.6-1.4c7.7,1.7,13.7,8.3,15.8,15.8c0.8,4.2,0.1,8.6-0.6,12.7
			c-0.3-7.4-0.7-16-6.6-21.3c-6.3-6.4-17.3-7.4-24.6-2.2c-4.8,3.9-8.3,9.2-10.5,14.9C332.8,89.7,337.9,82.1,345,79z"/>
	</symbol>

	<symbol id="whatsapp" viewBox="0 0 1000 1000">
		<title>whatsapp</title>
		<path fill="var(--color-white)" d="M1000 487a489 489 0 0 1-728 427L0 1000l89-261A489 489 0 0 1 510 0c270 0 490 218 490 487zM509 78A412 412 0 0 0 96 487c0 90 30 173 79 240l-52 152 159-50a413 413 0 0 0 640-342c0-226-185-409-413-409zm248 521c-3-5-11-8-23-14l-82-38c-11-4-19-6-27 6s-31 38-38 46-14 9-27 3c-12-6-50-18-96-59-36-32-60-71-67-83s-1-18 5-24l18-21c6-7 8-12 12-20s2-15-1-21l-37-88c-10-24-20-20-27-20l-23-1c-8 0-21 3-32 15s-42 41-42 99c0 59 43 116 49 124s83 132 205 180 123 32 145 30 71-29 81-57 10-52 7-57z"/>
	</symbol>

	<symbol id="instagram" viewBox="0 0 1000 1000">
		<title>instagram</title>
		<path fill="var(--color-white)" d="M499 243a257 257 0 1 0 1 514 257 257 0 0 0-1-514zm0 415a159 159 0 1 1 0-318 159 159 0 0 1 0 318zM709 5H289A285 285 0 0 0 5 290v419c0 157 127 285 284 285h420c157 0 285-128 285-285V290C994 133 866 5 709 5zm187 704c0 103-84 187-187 187H289c-103 0-186-84-186-187V290c0-103 83-187 186-187h420c103 0 187 84 187 187v419zM760 169a67 67 0 1 0 0 134 67 67 0 0 0 0-134z"/>
	</symbol>

	<symbol id="facebook" viewBox="0 0 1000 1000">
	 	<title>facebook</title>
	 	<path fill="var(--color-white)" d="M703.2 345.8H564.6V255c0-34.1 22.7-42.1 38.6-42.1h97.6V63l-134.6-.5C416.9 62.5 383 174.3 383 245.9v99.9h-86.4v154.4H383v437.2h181.7V500.3h122.6l15.9-154.5z"/>
	</symbol>

</svg>
