<svg xmlns="http://www.w3.org/2000/svg" xmlns:xlink="http://www.w3.org/1999/xlink">

	<symbol id="instagram" viewBox="0 0 1000 1000">
	 	<title>instagram</title>
	 	<path fill="var(--color-svg)" dur="1s" d="M499 243a257 257 0 1 0 1 514 257 257 0 0 0-1-514zm0 415a159 159 0 1 1 0-318 159 159 0 0 1 0 318zM709 5H289A285 285 0 0 0 5 290v419c0 157 127 285 284 285h420c157 0 285-128 285-285V290C994 133 866 5 709 5zm187 704c0 103-84 187-187 187H289c-103 0-186-84-186-187V290c0-103 83-187 186-187h420c103 0 187 84 187 187v419zM760 169a67 67 0 1 0 0 134 67 67 0 0 0 0-134z"/>
	</symbol>	

	<symbol id="vk" viewBox="0 0 1000 1000">
	 	<title>vk</title>
	 	<path fill="var(--color-svg)" d="M491 747h52s16-1 24-10c7-8 7-23 7-23s-1-70 32-80c32-11 73 67 117 97 33 23 58 18 58 18l117-2s61-3 32-51c-3-4-17-36-87-101-73-68-64-57 25-174 53-72 75-116 68-135-6-17-46-13-46-13l-131 1s-10-1-17 3-12 14-12 14-21 56-48 103c-59 99-82 105-92 98-22-14-17-57-17-88 0-97 15-137-28-147-15-4-25-6-62-6-47-1-86 0-109 11-15 7-26 24-19 24 8 2 28 6 38 20 14 18 13 59 13 59s8 114-18 128c-17 10-42-10-94-100-27-46-47-98-47-98s-4-9-11-14c-8-6-20-8-20-8H91s-19 1-26 9c-6 7 0 22 0 22s98 229 209 345c101 105 217 98 217 98"/>
	</symbol>	

	<symbol id="google-plus" viewBox="0 0 1000 1000">
	 	<title>google-plus</title>
	 	<path fill="var(--color-svg)" d="M340.9 221.8C187 221.8 62.5 346.2 62.5 500.2S187 778.6 340.9 778.6c160.7 0 267.3-112.9 267.3-272 0-18.3 0-32.3-4.4-46.2H340.9V556h157.9c-6.4 40.8-47.8 120-157.9 120-95 0-172.6-78.9-172.6-175.8s77.6-175.8 172.6-175.8c54.2 0 90.4 23.1 110.9 43l75.7-72.7c-48.6-45.4-111.4-72.9-186.6-72.9zm437.5 159.1v79.5h-79.7V540h79.7v79.5h79.5V540h79.7v-79.7h-79.7v-79.5h-79.5z"/>
	</symbol>	

	<symbol id="facebook" viewBox="0 0 1000 1000">
	 	<title>facebook</title>
	 	<path fill="var(--color-svg)" d="M703.2 345.8H564.6V255c0-34.1 22.7-42.1 38.6-42.1h97.6V63l-134.6-.5C416.9 62.5 383 174.3 383 245.9v99.9h-86.4v154.4H383v437.2h181.7V500.3h122.6l15.9-154.5z"/>
	</symbol>	

	<symbol id="cross" viewBox="0 0 612.043 612.043">
	 	<title>cross</title>
	 	<path fill="var(--color-svg)" d="M397.503 306.011L593.08 110.434c25.27-25.269 25.27-66.213 0-91.482-25.269-25.269-66.213-25.269-91.481 0L306.022 214.551 110.445 18.974c-25.269-25.269-66.213-25.269-91.482 0s-25.269 66.213 0 91.482L214.54 306.033 18.963 501.61c-25.269 25.269-25.269 66.213 0 91.481 25.269 25.27 66.213 25.27 91.482 0l195.577-195.576 195.577 195.576c25.269 25.27 66.213 25.27 91.481 0 25.27-25.269 25.27-66.213 0-91.481L397.503 306.011z"/>
	</symbol>	

</svg>